<svg id="visual" viewBox="0 0 900 600" width="900" height="600" xmlns="http://www.w3.org/2000/svg" xmlns:xlink="http://www.w3.org/1999/xlink" version="1.1"><rect x="0" y="0" width="900" height="600" fill="#002233"></rect><path d="M0 114L16.7 125C33.3 136 66.7 158 100 167.5C133.3 177 166.7 174 200 161.5C233.3 149 266.7 127 300 128.8C333.3 130.7 366.7 156.3 400 166.8C433.3 177.3 466.7 172.7 500 160.2C533.3 147.7 566.7 127.3 600 121.8C633.3 116.3 666.7 125.7 700 127C733.3 128.3 766.7 121.7 800 126.5C833.3 131.3 866.7 147.7 883.3 155.8L900 164L900 0L883.3 0C866.7 0 833.3 0 800 0C766.7 0 733.3 0 700 0C666.7 0 633.3 0 600 0C566.7 0 533.3 0 500 0C466.7 0 433.3 0 400 0C366.7 0 333.3 0 300 0C266.7 0 233.3 0 200 0C166.7 0 133.3 0 100 0C66.7 0 33.3 0 16.7 0L0 0Z" fill="#0066FF" stroke-linecap="round" stroke-linejoin="miter"></path></svg>